<mxfile host="65bd71144e">
    <diagram id="0yEimYr9jU6wiKFB4wxG" name="Page-1">
        <mxGraphModel dx="1182" dy="586" grid="1" gridSize="10" guides="1" tooltips="1" connect="1" arrows="1" fold="1" page="1" pageScale="1" pageWidth="850" pageHeight="1100" math="0" shadow="0">
            <root>
                <mxCell id="0"/>
                <mxCell id="1" parent="0"/>
                <mxCell id="2" value="Actor" style="shape=umlActor;verticalLabelPosition=bottom;verticalAlign=top;html=1;outlineConnect=0;" vertex="1" parent="1">
                    <mxGeometry x="410" y="270" width="30" height="60" as="geometry"/>
                </mxCell>
                <mxCell id="3" value="users" style="ellipse;shape=cloud;whiteSpace=wrap;html=1;" vertex="1" parent="1">
                    <mxGeometry x="150" y="140" width="120" height="80" as="geometry"/>
                </mxCell>
                <mxCell id="4" value="courses" style="ellipse;shape=cloud;whiteSpace=wrap;html=1;" vertex="1" parent="1">
                    <mxGeometry x="370" y="80" width="120" height="80" as="geometry"/>
                </mxCell>
                <mxCell id="5" value="trainers" style="ellipse;shape=cloud;whiteSpace=wrap;html=1;" vertex="1" parent="1">
                    <mxGeometry x="600" y="130" width="120" height="80" as="geometry"/>
                </mxCell>
            </root>
        </mxGraphModel>
    </diagram>
    <diagram id="LX92y1jSRUq7OgmCGH5Q" name="ER_model">
        <mxGraphModel dx="1182" dy="586" grid="1" gridSize="10" guides="1" tooltips="1" connect="1" arrows="1" fold="1" page="1" pageScale="1" pageWidth="850" pageHeight="1100" math="0" shadow="0">
            <root>
                <mxCell id="3Ag2DevWmbNE2BQFTxcx-0"/>
                <mxCell id="3Ag2DevWmbNE2BQFTxcx-1" parent="3Ag2DevWmbNE2BQFTxcx-0"/>
                <mxCell id="VPj3gUFObpqZffUEF2Ur-0" style="edgeStyle=none;html=1;exitX=1;exitY=0.5;exitDx=0;exitDy=0;entryX=0;entryY=0.5;entryDx=0;entryDy=0;endArrow=none;endFill=0;" edge="1" parent="3Ag2DevWmbNE2BQFTxcx-1" source="VPj3gUFObpqZffUEF2Ur-2" target="VPj3gUFObpqZffUEF2Ur-12">
                    <mxGeometry relative="1" as="geometry"/>
                </mxCell>
                <mxCell id="VPj3gUFObpqZffUEF2Ur-1" style="edgeStyle=none;html=1;exitX=0.5;exitY=1;exitDx=0;exitDy=0;endArrow=none;endFill=0;" edge="1" parent="3Ag2DevWmbNE2BQFTxcx-1" source="VPj3gUFObpqZffUEF2Ur-2" target="VPj3gUFObpqZffUEF2Ur-20">
                    <mxGeometry relative="1" as="geometry"/>
                </mxCell>
                <mxCell id="VPj3gUFObpqZffUEF2Ur-2" value="course" style="rounded=1;whiteSpace=wrap;html=1;" vertex="1" parent="3Ag2DevWmbNE2BQFTxcx-1">
                    <mxGeometry x="150" y="130" width="120" height="60" as="geometry"/>
                </mxCell>
                <mxCell id="VPj3gUFObpqZffUEF2Ur-3" value="user" style="rounded=1;whiteSpace=wrap;html=1;" vertex="1" parent="3Ag2DevWmbNE2BQFTxcx-1">
                    <mxGeometry x="150" y="370" width="120" height="60" as="geometry"/>
                </mxCell>
                <mxCell id="VPj3gUFObpqZffUEF2Ur-4" value="trainer" style="rounded=1;whiteSpace=wrap;html=1;" vertex="1" parent="3Ag2DevWmbNE2BQFTxcx-1">
                    <mxGeometry x="500" y="130" width="120" height="60" as="geometry"/>
                </mxCell>
                <mxCell id="VPj3gUFObpqZffUEF2Ur-5" style="edgeStyle=none;html=1;exitX=0.5;exitY=1;exitDx=0;exitDy=0;entryX=0;entryY=0.25;entryDx=0;entryDy=0;endArrow=none;endFill=0;" edge="1" parent="3Ag2DevWmbNE2BQFTxcx-1" source="VPj3gUFObpqZffUEF2Ur-6" target="VPj3gUFObpqZffUEF2Ur-2">
                    <mxGeometry relative="1" as="geometry"/>
                </mxCell>
                <mxCell id="VPj3gUFObpqZffUEF2Ur-6" value="duration" style="ellipse;whiteSpace=wrap;html=1;" vertex="1" parent="3Ag2DevWmbNE2BQFTxcx-1">
                    <mxGeometry x="60" y="130" width="80" height="40" as="geometry"/>
                </mxCell>
                <mxCell id="VPj3gUFObpqZffUEF2Ur-7" style="edgeStyle=none;html=1;exitX=0.5;exitY=1;exitDx=0;exitDy=0;entryX=0.647;entryY=-0.04;entryDx=0;entryDy=0;entryPerimeter=0;endArrow=none;endFill=0;" edge="1" parent="3Ag2DevWmbNE2BQFTxcx-1" source="VPj3gUFObpqZffUEF2Ur-8" target="VPj3gUFObpqZffUEF2Ur-2">
                    <mxGeometry relative="1" as="geometry"/>
                </mxCell>
                <mxCell id="VPj3gUFObpqZffUEF2Ur-8" value="name" style="ellipse;whiteSpace=wrap;html=1;" vertex="1" parent="3Ag2DevWmbNE2BQFTxcx-1">
                    <mxGeometry x="200" y="70" width="70" height="40" as="geometry"/>
                </mxCell>
                <mxCell id="VPj3gUFObpqZffUEF2Ur-9" style="edgeStyle=none;html=1;exitX=0.5;exitY=0;exitDx=0;exitDy=0;entryX=0;entryY=0.75;entryDx=0;entryDy=0;endArrow=none;endFill=0;" edge="1" parent="3Ag2DevWmbNE2BQFTxcx-1" source="VPj3gUFObpqZffUEF2Ur-10" target="VPj3gUFObpqZffUEF2Ur-2">
                    <mxGeometry relative="1" as="geometry"/>
                </mxCell>
                <mxCell id="VPj3gUFObpqZffUEF2Ur-10" value="price" style="ellipse;whiteSpace=wrap;html=1;" vertex="1" parent="3Ag2DevWmbNE2BQFTxcx-1">
                    <mxGeometry x="80" y="210" width="70" height="40" as="geometry"/>
                </mxCell>
                <mxCell id="VPj3gUFObpqZffUEF2Ur-11" style="edgeStyle=none;html=1;exitX=1;exitY=0.5;exitDx=0;exitDy=0;entryX=0;entryY=0.5;entryDx=0;entryDy=0;endArrow=none;endFill=0;" edge="1" parent="3Ag2DevWmbNE2BQFTxcx-1" source="VPj3gUFObpqZffUEF2Ur-12" target="VPj3gUFObpqZffUEF2Ur-4">
                    <mxGeometry relative="1" as="geometry"/>
                </mxCell>
                <mxCell id="VPj3gUFObpqZffUEF2Ur-12" value="has" style="rhombus;whiteSpace=wrap;html=1;" vertex="1" parent="3Ag2DevWmbNE2BQFTxcx-1">
                    <mxGeometry x="360" y="130" width="54" height="60" as="geometry"/>
                </mxCell>
                <mxCell id="VPj3gUFObpqZffUEF2Ur-13" style="edgeStyle=none;html=1;exitX=0.5;exitY=1;exitDx=0;exitDy=0;entryX=0.083;entryY=-0.053;entryDx=0;entryDy=0;entryPerimeter=0;endArrow=none;endFill=0;" edge="1" parent="3Ag2DevWmbNE2BQFTxcx-1" source="VPj3gUFObpqZffUEF2Ur-14" target="VPj3gUFObpqZffUEF2Ur-4">
                    <mxGeometry relative="1" as="geometry"/>
                </mxCell>
                <mxCell id="VPj3gUFObpqZffUEF2Ur-14" value="id" style="ellipse;whiteSpace=wrap;html=1;" vertex="1" parent="3Ag2DevWmbNE2BQFTxcx-1">
                    <mxGeometry x="460" y="60" width="70" height="40" as="geometry"/>
                </mxCell>
                <mxCell id="VPj3gUFObpqZffUEF2Ur-15" style="edgeStyle=none;html=1;exitX=0.5;exitY=1;exitDx=0;exitDy=0;entryX=0.883;entryY=-0.027;entryDx=0;entryDy=0;entryPerimeter=0;endArrow=none;endFill=0;" edge="1" parent="3Ag2DevWmbNE2BQFTxcx-1" source="VPj3gUFObpqZffUEF2Ur-16" target="VPj3gUFObpqZffUEF2Ur-4">
                    <mxGeometry relative="1" as="geometry"/>
                </mxCell>
                <mxCell id="VPj3gUFObpqZffUEF2Ur-16" value="name" style="ellipse;whiteSpace=wrap;html=1;" vertex="1" parent="3Ag2DevWmbNE2BQFTxcx-1">
                    <mxGeometry x="580" y="60" width="70" height="40" as="geometry"/>
                </mxCell>
                <mxCell id="VPj3gUFObpqZffUEF2Ur-19" style="edgeStyle=none;html=1;exitX=0.5;exitY=1;exitDx=0;exitDy=0;entryX=0.5;entryY=0;entryDx=0;entryDy=0;endArrow=none;endFill=0;" edge="1" parent="3Ag2DevWmbNE2BQFTxcx-1" source="VPj3gUFObpqZffUEF2Ur-20">
                    <mxGeometry relative="1" as="geometry">
                        <mxPoint x="210" y="370" as="targetPoint"/>
                    </mxGeometry>
                </mxCell>
                <mxCell id="VPj3gUFObpqZffUEF2Ur-20" value="books" style="rhombus;whiteSpace=wrap;html=1;" vertex="1" parent="3Ag2DevWmbNE2BQFTxcx-1">
                    <mxGeometry x="180" y="250" width="60" height="60" as="geometry"/>
                </mxCell>
                <mxCell id="VPj3gUFObpqZffUEF2Ur-21" style="edgeStyle=none;html=1;exitX=1;exitY=0.5;exitDx=0;exitDy=0;entryX=0.32;entryY=1.013;entryDx=0;entryDy=0;entryPerimeter=0;endArrow=none;endFill=0;" edge="1" parent="3Ag2DevWmbNE2BQFTxcx-1" source="VPj3gUFObpqZffUEF2Ur-22" target="VPj3gUFObpqZffUEF2Ur-3">
                    <mxGeometry relative="1" as="geometry"/>
                </mxCell>
                <mxCell id="VPj3gUFObpqZffUEF2Ur-22" value="email" style="ellipse;whiteSpace=wrap;html=1;" vertex="1" parent="3Ag2DevWmbNE2BQFTxcx-1">
                    <mxGeometry x="60" y="440" width="70" height="40" as="geometry"/>
                </mxCell>
                <mxCell id="VPj3gUFObpqZffUEF2Ur-23" style="edgeStyle=none;html=1;exitX=0;exitY=1;exitDx=0;exitDy=0;entryX=0.9;entryY=-0.02;entryDx=0;entryDy=0;entryPerimeter=0;endArrow=none;endFill=0;" edge="1" parent="3Ag2DevWmbNE2BQFTxcx-1" source="VPj3gUFObpqZffUEF2Ur-24" target="VPj3gUFObpqZffUEF2Ur-3">
                    <mxGeometry relative="1" as="geometry"/>
                </mxCell>
                <mxCell id="VPj3gUFObpqZffUEF2Ur-24" value="name" style="ellipse;whiteSpace=wrap;html=1;" vertex="1" parent="3Ag2DevWmbNE2BQFTxcx-1">
                    <mxGeometry x="290" y="320" width="70" height="40" as="geometry"/>
                </mxCell>
                <mxCell id="VPj3gUFObpqZffUEF2Ur-25" style="edgeStyle=none;html=1;exitX=1;exitY=1;exitDx=0;exitDy=0;entryX=0.16;entryY=0.007;entryDx=0;entryDy=0;entryPerimeter=0;endArrow=none;endFill=0;" edge="1" parent="3Ag2DevWmbNE2BQFTxcx-1" source="VPj3gUFObpqZffUEF2Ur-26" target="VPj3gUFObpqZffUEF2Ur-3">
                    <mxGeometry relative="1" as="geometry"/>
                </mxCell>
                <mxCell id="VPj3gUFObpqZffUEF2Ur-26" value="id" style="ellipse;whiteSpace=wrap;html=1;" vertex="1" parent="3Ag2DevWmbNE2BQFTxcx-1">
                    <mxGeometry x="60" y="320" width="70" height="40" as="geometry"/>
                </mxCell>
                <mxCell id="VPj3gUFObpqZffUEF2Ur-27" style="edgeStyle=none;html=1;exitX=0;exitY=0;exitDx=0;exitDy=0;entryX=0.75;entryY=1;entryDx=0;entryDy=0;endArrow=none;endFill=0;" edge="1" parent="3Ag2DevWmbNE2BQFTxcx-1" source="VPj3gUFObpqZffUEF2Ur-28" target="VPj3gUFObpqZffUEF2Ur-3">
                    <mxGeometry relative="1" as="geometry"/>
                </mxCell>
                <mxCell id="VPj3gUFObpqZffUEF2Ur-28" value="address" style="ellipse;whiteSpace=wrap;html=1;" vertex="1" parent="3Ag2DevWmbNE2BQFTxcx-1">
                    <mxGeometry x="280" y="440" width="80" height="40" as="geometry"/>
                </mxCell>
                <mxCell id="VPj3gUFObpqZffUEF2Ur-29" style="html=1;exitX=1;exitY=1;exitDx=0;exitDy=0;entryX=0.16;entryY=-0.027;entryDx=0;entryDy=0;entryPerimeter=0;endArrow=none;endFill=0;" edge="1" parent="3Ag2DevWmbNE2BQFTxcx-1" source="VPj3gUFObpqZffUEF2Ur-30" target="VPj3gUFObpqZffUEF2Ur-2">
                    <mxGeometry relative="1" as="geometry"/>
                </mxCell>
                <mxCell id="VPj3gUFObpqZffUEF2Ur-30" value="id" style="ellipse;whiteSpace=wrap;html=1;" vertex="1" parent="3Ag2DevWmbNE2BQFTxcx-1">
                    <mxGeometry x="100" y="70" width="72.5" height="40" as="geometry"/>
                </mxCell>
                <mxCell id="VPj3gUFObpqZffUEF2Ur-31" style="html=1;exitX=0;exitY=0;exitDx=0;exitDy=0;entryX=1;entryY=0.75;entryDx=0;entryDy=0;endArrow=none;endFill=0;" edge="1" parent="3Ag2DevWmbNE2BQFTxcx-1" source="VPj3gUFObpqZffUEF2Ur-32" target="VPj3gUFObpqZffUEF2Ur-4">
                    <mxGeometry relative="1" as="geometry"/>
                </mxCell>
                <mxCell id="VPj3gUFObpqZffUEF2Ur-32" value="email" style="ellipse;whiteSpace=wrap;html=1;" vertex="1" parent="3Ag2DevWmbNE2BQFTxcx-1">
                    <mxGeometry x="650" y="170" width="100" height="50" as="geometry"/>
                </mxCell>
                <mxCell id="VPj3gUFObpqZffUEF2Ur-37" value="" style="edgeStyle=none;html=1;endArrow=none;endFill=0;" edge="1" parent="3Ag2DevWmbNE2BQFTxcx-1" source="VPj3gUFObpqZffUEF2Ur-33" target="VPj3gUFObpqZffUEF2Ur-4">
                    <mxGeometry relative="1" as="geometry"/>
                </mxCell>
                <mxCell id="VPj3gUFObpqZffUEF2Ur-33" value="address" style="ellipse;whiteSpace=wrap;html=1;" vertex="1" parent="3Ag2DevWmbNE2BQFTxcx-1">
                    <mxGeometry x="510" y="230" width="100" height="50" as="geometry"/>
                </mxCell>
            </root>
        </mxGraphModel>
    </diagram>
    <diagram id="0LzYr7VRhC-Z4-Xeha50" name="UML_diagram">
        <mxGraphModel dx="1182" dy="586" grid="1" gridSize="10" guides="1" tooltips="1" connect="1" arrows="1" fold="1" page="1" pageScale="1" pageWidth="850" pageHeight="1100" math="0" shadow="0">
            <root>
                <mxCell id="BSFgVuzGJWU2PhbT0Zw1-0"/>
                <mxCell id="BSFgVuzGJWU2PhbT0Zw1-1" parent="BSFgVuzGJWU2PhbT0Zw1-0"/>
                <mxCell id="jGCxdcCrQssRp6LTy3UQ-0" value="user" style="swimlane;fontStyle=0;childLayout=stackLayout;horizontal=1;startSize=26;fillColor=none;horizontalStack=0;resizeParent=1;resizeParentMax=0;resizeLast=0;collapsible=1;marginBottom=0;" vertex="1" parent="BSFgVuzGJWU2PhbT0Zw1-1">
                    <mxGeometry x="120" y="70" width="140" height="208" as="geometry"/>
                </mxCell>
                <mxCell id="jGCxdcCrQssRp6LTy3UQ-1" value="- id: int" style="text;strokeColor=none;fillColor=none;align=left;verticalAlign=top;spacingLeft=4;spacingRight=4;overflow=hidden;rotatable=0;points=[[0,0.5],[1,0.5]];portConstraint=eastwest;" vertex="1" parent="jGCxdcCrQssRp6LTy3UQ-0">
                    <mxGeometry y="26" width="140" height="26" as="geometry"/>
                </mxCell>
                <mxCell id="jGCxdcCrQssRp6LTy3UQ-2" value="- password: varchar" style="text;strokeColor=none;fillColor=none;align=left;verticalAlign=top;spacingLeft=4;spacingRight=4;overflow=hidden;rotatable=0;points=[[0,0.5],[1,0.5]];portConstraint=eastwest;" vertex="1" parent="jGCxdcCrQssRp6LTy3UQ-0">
                    <mxGeometry y="52" width="140" height="26" as="geometry"/>
                </mxCell>
                <mxCell id="jGCxdcCrQssRp6LTy3UQ-3" value="- email_address: varchar" style="text;strokeColor=none;fillColor=none;align=left;verticalAlign=top;spacingLeft=4;spacingRight=4;overflow=hidden;rotatable=0;points=[[0,0.5],[1,0.5]];portConstraint=eastwest;" vertex="1" parent="jGCxdcCrQssRp6LTy3UQ-0">
                    <mxGeometry y="78" width="140" height="26" as="geometry"/>
                </mxCell>
                <mxCell id="jGCxdcCrQssRp6LTy3UQ-4" value="- first_name: varchar" style="text;strokeColor=none;fillColor=none;align=left;verticalAlign=top;spacingLeft=4;spacingRight=4;overflow=hidden;rotatable=0;points=[[0,0.5],[1,0.5]];portConstraint=eastwest;" vertex="1" parent="jGCxdcCrQssRp6LTy3UQ-0">
                    <mxGeometry y="104" width="140" height="26" as="geometry"/>
                </mxCell>
                <mxCell id="jGCxdcCrQssRp6LTy3UQ-5" value="- last_name: varchar" style="text;strokeColor=none;fillColor=none;align=left;verticalAlign=top;spacingLeft=4;spacingRight=4;overflow=hidden;rotatable=0;points=[[0,0.5],[1,0.5]];portConstraint=eastwest;" vertex="1" parent="jGCxdcCrQssRp6LTy3UQ-0">
                    <mxGeometry y="130" width="140" height="26" as="geometry"/>
                </mxCell>
                <mxCell id="jGCxdcCrQssRp6LTy3UQ-18" value="- address: varchar" style="text;strokeColor=none;fillColor=none;align=left;verticalAlign=top;spacingLeft=4;spacingRight=4;overflow=hidden;rotatable=0;points=[[0,0.5],[1,0.5]];portConstraint=eastwest;" vertex="1" parent="jGCxdcCrQssRp6LTy3UQ-0">
                    <mxGeometry y="156" width="140" height="26" as="geometry"/>
                </mxCell>
                <mxCell id="jGCxdcCrQssRp6LTy3UQ-19" value="- phone_number: varchar" style="text;strokeColor=none;fillColor=none;align=left;verticalAlign=top;spacingLeft=4;spacingRight=4;overflow=hidden;rotatable=0;points=[[0,0.5],[1,0.5]];portConstraint=eastwest;" vertex="1" parent="jGCxdcCrQssRp6LTy3UQ-0">
                    <mxGeometry y="182" width="140" height="26" as="geometry"/>
                </mxCell>
                <mxCell id="jGCxdcCrQssRp6LTy3UQ-6" value="trainer" style="swimlane;fontStyle=0;childLayout=stackLayout;horizontal=1;startSize=26;fillColor=none;horizontalStack=0;resizeParent=1;resizeParentMax=0;resizeLast=0;collapsible=1;marginBottom=0;" vertex="1" parent="BSFgVuzGJWU2PhbT0Zw1-1">
                    <mxGeometry x="400" y="70" width="170" height="182" as="geometry"/>
                </mxCell>
                <mxCell id="jGCxdcCrQssRp6LTy3UQ-7" value="- id: int" style="text;strokeColor=none;fillColor=none;align=left;verticalAlign=top;spacingLeft=4;spacingRight=4;overflow=hidden;rotatable=0;points=[[0,0.5],[1,0.5]];portConstraint=eastwest;" vertex="1" parent="jGCxdcCrQssRp6LTy3UQ-6">
                    <mxGeometry y="26" width="170" height="26" as="geometry"/>
                </mxCell>
                <mxCell id="jGCxdcCrQssRp6LTy3UQ-8" value="- first_name: varchar" style="text;strokeColor=none;fillColor=none;align=left;verticalAlign=top;spacingLeft=4;spacingRight=4;overflow=hidden;rotatable=0;points=[[0,0.5],[1,0.5]];portConstraint=eastwest;" vertex="1" parent="jGCxdcCrQssRp6LTy3UQ-6">
                    <mxGeometry y="52" width="170" height="26" as="geometry"/>
                </mxCell>
                <mxCell id="jGCxdcCrQssRp6LTy3UQ-9" value="- last_name: varchar" style="text;strokeColor=none;fillColor=none;align=left;verticalAlign=top;spacingLeft=4;spacingRight=4;overflow=hidden;rotatable=0;points=[[0,0.5],[1,0.5]];portConstraint=eastwest;" vertex="1" parent="jGCxdcCrQssRp6LTy3UQ-6">
                    <mxGeometry y="78" width="170" height="26" as="geometry"/>
                </mxCell>
                <mxCell id="jGCxdcCrQssRp6LTy3UQ-10" value="- email: varchar" style="text;strokeColor=none;fillColor=none;align=left;verticalAlign=top;spacingLeft=4;spacingRight=4;overflow=hidden;rotatable=0;points=[[0,0.5],[1,0.5]];portConstraint=eastwest;" vertex="1" parent="jGCxdcCrQssRp6LTy3UQ-6">
                    <mxGeometry y="104" width="170" height="26" as="geometry"/>
                </mxCell>
                <mxCell id="jGCxdcCrQssRp6LTy3UQ-20" value="- address: varchar" style="text;strokeColor=none;fillColor=none;align=left;verticalAlign=top;spacingLeft=4;spacingRight=4;overflow=hidden;rotatable=0;points=[[0,0.5],[1,0.5]];portConstraint=eastwest;" vertex="1" parent="jGCxdcCrQssRp6LTy3UQ-6">
                    <mxGeometry y="130" width="170" height="26" as="geometry"/>
                </mxCell>
                <mxCell id="jGCxdcCrQssRp6LTy3UQ-21" value="- phone_number: varchar" style="text;strokeColor=none;fillColor=none;align=left;verticalAlign=top;spacingLeft=4;spacingRight=4;overflow=hidden;rotatable=0;points=[[0,0.5],[1,0.5]];portConstraint=eastwest;" vertex="1" parent="jGCxdcCrQssRp6LTy3UQ-6">
                    <mxGeometry y="156" width="170" height="26" as="geometry"/>
                </mxCell>
                <mxCell id="jGCxdcCrQssRp6LTy3UQ-11" value="course" style="swimlane;fontStyle=0;childLayout=stackLayout;horizontal=1;startSize=26;fillColor=none;horizontalStack=0;resizeParent=1;resizeParentMax=0;resizeLast=0;collapsible=1;marginBottom=0;" vertex="1" parent="BSFgVuzGJWU2PhbT0Zw1-1">
                    <mxGeometry x="440" y="340" width="140" height="182" as="geometry"/>
                </mxCell>
                <mxCell id="jGCxdcCrQssRp6LTy3UQ-12" value="- id: int" style="text;strokeColor=none;fillColor=none;align=left;verticalAlign=top;spacingLeft=4;spacingRight=4;overflow=hidden;rotatable=0;points=[[0,0.5],[1,0.5]];portConstraint=eastwest;" vertex="1" parent="jGCxdcCrQssRp6LTy3UQ-11">
                    <mxGeometry y="26" width="140" height="26" as="geometry"/>
                </mxCell>
                <mxCell id="jGCxdcCrQssRp6LTy3UQ-13" value="- description: varchar" style="text;strokeColor=none;fillColor=none;align=left;verticalAlign=top;spacingLeft=4;spacingRight=4;overflow=hidden;rotatable=0;points=[[0,0.5],[1,0.5]];portConstraint=eastwest;" vertex="1" parent="jGCxdcCrQssRp6LTy3UQ-11">
                    <mxGeometry y="52" width="140" height="26" as="geometry"/>
                </mxCell>
                <mxCell id="jGCxdcCrQssRp6LTy3UQ-14" value="- start_date: datetime" style="text;strokeColor=none;fillColor=none;align=left;verticalAlign=top;spacingLeft=4;spacingRight=4;overflow=hidden;rotatable=0;points=[[0,0.5],[1,0.5]];portConstraint=eastwest;" vertex="1" parent="jGCxdcCrQssRp6LTy3UQ-11">
                    <mxGeometry y="78" width="140" height="26" as="geometry"/>
                </mxCell>
                <mxCell id="jGCxdcCrQssRp6LTy3UQ-15" value="- end_date: datetime" style="text;strokeColor=none;fillColor=none;align=left;verticalAlign=top;spacingLeft=4;spacingRight=4;overflow=hidden;rotatable=0;points=[[0,0.5],[1,0.5]];portConstraint=eastwest;" vertex="1" parent="jGCxdcCrQssRp6LTy3UQ-11">
                    <mxGeometry y="104" width="140" height="26" as="geometry"/>
                </mxCell>
                <mxCell id="jGCxdcCrQssRp6LTy3UQ-22" value="- reviews: varchar" style="text;strokeColor=none;fillColor=none;align=left;verticalAlign=top;spacingLeft=4;spacingRight=4;overflow=hidden;rotatable=0;points=[[0,0.5],[1,0.5]];portConstraint=eastwest;" vertex="1" parent="jGCxdcCrQssRp6LTy3UQ-11">
                    <mxGeometry y="130" width="140" height="26" as="geometry"/>
                </mxCell>
                <mxCell id="jGCxdcCrQssRp6LTy3UQ-29" value="- available: boolean" style="text;strokeColor=none;fillColor=none;align=left;verticalAlign=top;spacingLeft=4;spacingRight=4;overflow=hidden;rotatable=0;points=[[0,0.5],[1,0.5]];portConstraint=eastwest;" vertex="1" parent="jGCxdcCrQssRp6LTy3UQ-11">
                    <mxGeometry y="156" width="140" height="26" as="geometry"/>
                </mxCell>
                <mxCell id="jGCxdcCrQssRp6LTy3UQ-23" value="booking" style="swimlane;fontStyle=0;childLayout=stackLayout;horizontal=1;startSize=26;fillColor=none;horizontalStack=0;resizeParent=1;resizeParentMax=0;resizeLast=0;collapsible=1;marginBottom=0;" vertex="1" parent="BSFgVuzGJWU2PhbT0Zw1-1">
                    <mxGeometry x="140" y="340" width="140" height="130" as="geometry"/>
                </mxCell>
                <mxCell id="jGCxdcCrQssRp6LTy3UQ-24" value="- id: int" style="text;strokeColor=none;fillColor=none;align=left;verticalAlign=top;spacingLeft=4;spacingRight=4;overflow=hidden;rotatable=0;points=[[0,0.5],[1,0.5]];portConstraint=eastwest;" vertex="1" parent="jGCxdcCrQssRp6LTy3UQ-23">
                    <mxGeometry y="26" width="140" height="26" as="geometry"/>
                </mxCell>
                <mxCell id="jGCxdcCrQssRp6LTy3UQ-25" value="- fk_user_id: int" style="text;strokeColor=none;fillColor=none;align=left;verticalAlign=top;spacingLeft=4;spacingRight=4;overflow=hidden;rotatable=0;points=[[0,0.5],[1,0.5]];portConstraint=eastwest;" vertex="1" parent="jGCxdcCrQssRp6LTy3UQ-23">
                    <mxGeometry y="52" width="140" height="26" as="geometry"/>
                </mxCell>
                <mxCell id="jGCxdcCrQssRp6LTy3UQ-26" value="- fk_course_id: int" style="text;strokeColor=none;fillColor=none;align=left;verticalAlign=top;spacingLeft=4;spacingRight=4;overflow=hidden;rotatable=0;points=[[0,0.5],[1,0.5]];portConstraint=eastwest;" vertex="1" parent="jGCxdcCrQssRp6LTy3UQ-23">
                    <mxGeometry y="78" width="140" height="26" as="geometry"/>
                </mxCell>
                <mxCell id="jGCxdcCrQssRp6LTy3UQ-27" value="- booking_date: datetime" style="text;strokeColor=none;fillColor=none;align=left;verticalAlign=top;spacingLeft=4;spacingRight=4;overflow=hidden;rotatable=0;points=[[0,0.5],[1,0.5]];portConstraint=eastwest;" vertex="1" parent="jGCxdcCrQssRp6LTy3UQ-23">
                    <mxGeometry y="104" width="140" height="26" as="geometry"/>
                </mxCell>
            </root>
        </mxGraphModel>
    </diagram>
</mxfile>